<svg width="115" height="39" viewBox="0 0 115 39" fill="none" xmlns="http://www.w3.org/2000/svg">
<path fill-rule="evenodd" clip-rule="evenodd" d="M32.297 9.16584C34.8533 9.16584 37.2167 7.114 37.576 4.58292C37.9352 2.05184 36.1543 0 33.598 0C31.0418 0 28.6783 2.05184 28.3191 4.58292C27.9598 7.114 29.7409 9.16584 32.297 9.16584ZM99.0233 38.3819C93.2712 38.3819 89.2644 33.7653 90.0728 28.0703L93.813 1.71852C93.858 1.40214 94.1533 1.14566 94.4728 1.14566H101.416C101.735 1.14566 101.958 1.40214 101.913 1.71852L98.2336 27.6407C98.054 28.9062 98.9446 29.9321 100.223 29.9321C101.501 29.9321 102.683 28.9062 102.862 27.6407L106.541 1.71852C106.586 1.40214 106.882 1.14566 107.201 1.14566H114.433C114.752 1.14566 114.975 1.40214 114.93 1.71852L111.19 28.0703C110.382 33.7653 105.064 38.3819 99.3121 38.3819H99.0233ZM50.7951 37.8091C50.4756 37.8091 50.2529 37.5527 50.2979 37.2362L50.4769 35.9748C48.7349 37.5144 46.5266 38.3819 44.3497 38.3819H43.1926C38.7193 38.3819 35.6025 34.7912 36.2312 30.3619L37.9387 18.3317C38.5674 13.9023 42.7035 10.3116 47.1768 10.3116H48.3339C50.5108 10.3116 52.4728 11.1792 53.7778 12.7188L55.3391 1.7186C55.384 1.40221 55.6795 1.14574 55.999 1.14574H62.9417C63.2612 1.14574 63.4838 1.40221 63.4389 1.7186L58.3976 37.2362C58.3527 37.5527 58.0573 37.8091 57.7378 37.8091H50.7951ZM8.69459 1.1458H0.863848C0.502186 1.1458 0.18307 1.47068 0.198843 1.82282L1.78979 37.3404C1.80195 37.6121 2.0132 37.8092 2.29216 37.8092H13.3828C13.6617 37.8092 13.9289 37.6121 14.0182 37.3404L25.6917 1.82282C25.8074 1.47068 25.5805 1.1458 25.2188 1.1458H17.3881C17.1015 1.1458 16.8286 1.3536 16.7465 1.63431L9.24619 27.8843L9.1975 1.63431C9.19513 1.3536 8.9812 1.1458 8.69459 1.1458ZM85.6809 37.8092L77.8501 37.8093C77.5635 37.8093 77.3496 37.6014 77.3472 37.3208L77.303 32.0805H71.3298L69.7982 37.3209C69.7161 37.6016 69.4432 37.8094 69.1566 37.8094L61.3259 37.8093C60.9642 37.8093 60.7373 37.4844 60.853 37.1322L72.5265 1.61454C72.6157 1.34294 72.883 1.14584 73.1619 1.14584H84.2524C84.5314 1.14584 84.7426 1.34294 84.7547 1.61454L86.3459 37.1322C86.3617 37.4844 86.0426 37.8092 85.6809 37.8092ZM24.7602 37.8091C24.4407 37.8091 24.218 37.5527 24.2629 37.2362L27.9219 11.4574C27.9668 11.1409 28.2623 10.8844 28.5818 10.8844H35.5244C35.8439 10.8844 36.0666 11.1409 36.0217 11.4574L32.3627 37.2362C32.3178 37.5527 32.0223 37.8091 31.7028 37.8091H24.7602ZM77.298 11.071L77.2353 24.0604H73.6738L77.298 11.071ZM53.0091 24.8325L44.756 29.5276C44.3368 29.766 43.8759 29.4917 43.9397 29.0418L45.2725 19.6516C45.3364 19.2017 45.8752 18.9273 46.2267 19.1659L53.147 23.8609C53.4777 24.0853 53.4035 24.6081 53.0091 24.8325Z" fill="url(#paint0_linear_2168_2081)"/>
<defs>
<linearGradient id="paint0_linear_2168_2081" x1="112.45" y1="19.191" x2="-0.0105154" y2="3.2287" gradientUnits="userSpaceOnUse">
<stop stop-color="#6A3BFF"/>
<stop offset="1" stop-color="#3459FF"/>
</linearGradient>
</defs>
</svg>
