<svg width="18" height="19" viewBox="0 0 18 19" fill="none" xmlns="http://www.w3.org/2000/svg">
<path d="M15.875 0.631836H2.125C1.62772 0.631836 1.15081 0.82938 0.799175 1.18101C0.447544 1.53264 0.25 2.00955 0.25 2.50684L0.25 16.2568C0.25 16.7541 0.447544 17.231 0.799175 17.5827C1.15081 17.9343 1.62772 18.1318 2.125 18.1318H7.48633V12.1822H5.02539V9.38184H7.48633V7.24746C7.48633 4.81973 8.93164 3.47871 11.1453 3.47871C12.2055 3.47871 13.3141 3.66777 13.3141 3.66777V6.05059H12.0926C10.8891 6.05059 10.5137 6.79746 10.5137 7.56348V9.38184H13.2004L12.7707 12.1822H10.5137V18.1318H15.875C16.3723 18.1318 16.8492 17.9343 17.2008 17.5827C17.5525 17.231 17.75 16.7541 17.75 16.2568V2.50684C17.75 2.00955 17.5525 1.53264 17.2008 1.18101C16.8492 0.82938 16.3723 0.631836 15.875 0.631836Z" fill="#73869F"/>
</svg>
