<svg width="18" height="19" viewBox="0 0 18 19" fill="none" xmlns="http://www.w3.org/2000/svg">
<path d="M9 7.29824C8.58794 7.2984 8.18517 7.42073 7.84263 7.64977C7.50009 7.87881 7.23315 8.20428 7.07557 8.58502C6.91798 8.96576 6.87683 9.38468 6.95732 9.7888C7.0378 10.1929 7.23631 10.5641 7.52773 10.8554C7.81916 11.1468 8.19042 11.3451 8.59458 11.4255C8.99874 11.5058 9.41764 11.4645 9.79832 11.3068C10.179 11.149 10.5044 10.882 10.7333 10.5393C10.9622 10.1967 11.0844 9.7939 11.0844 9.38184C11.084 8.82922 10.8642 8.29938 10.4734 7.90869C10.0825 7.51801 9.55261 7.29845 9 7.29824ZM13.8715 5.69668C13.7654 5.42787 13.6052 5.18372 13.4009 4.97938C13.1966 4.77504 12.9524 4.61486 12.6836 4.50879C11.8633 4.18496 9.91016 4.25762 9 4.25762C8.08984 4.25762 6.13867 4.18223 5.31602 4.50879C5.0472 4.61486 4.80305 4.77504 4.59871 4.97938C4.39437 5.18372 4.2342 5.42787 4.12812 5.69668C3.80469 6.51699 3.87695 8.47207 3.87695 9.38145C3.87695 10.2908 3.80469 12.2436 4.12969 13.0666C4.23576 13.3354 4.39593 13.5796 4.60028 13.7839C4.80462 13.9882 5.04877 14.1484 5.31758 14.2545C6.13789 14.5783 8.09102 14.5057 9.00156 14.5057C9.91211 14.5057 11.8625 14.5811 12.6852 14.2545C12.954 14.1484 13.1981 13.9882 13.4025 13.7839C13.6068 13.5796 13.767 13.3354 13.873 13.0666C14.1992 12.2463 14.1242 10.2912 14.1242 9.38184C14.1242 8.47246 14.1992 6.52012 13.873 5.69707L13.8715 5.69668ZM9 12.585C8.36648 12.585 7.74719 12.3971 7.22044 12.0451C6.69369 11.6932 6.28314 11.1929 6.0407 10.6076C5.79826 10.0223 5.73483 9.37828 5.85842 8.75694C5.98202 8.13559 6.28708 7.56485 6.73505 7.11688C7.18301 6.66892 7.75376 6.36385 8.3751 6.24026C8.99645 6.11666 9.64049 6.1801 10.2258 6.42253C10.8111 6.66497 11.3113 7.07552 11.6633 7.60227C12.0153 8.12903 12.2031 8.74832 12.2031 9.38184C12.2036 9.80262 12.1211 10.2194 11.9603 10.6082C11.7996 10.9971 11.5636 11.3504 11.2661 11.6479C10.9686 11.9455 10.6152 12.1814 10.2264 12.3422C9.83754 12.503 9.42078 12.5855 9 12.585ZM12.3352 6.79199C12.1873 6.79207 12.0427 6.74829 11.9197 6.66618C11.7967 6.58407 11.7008 6.46733 11.6441 6.33072C11.5875 6.19411 11.5726 6.04377 11.6014 5.89872C11.6302 5.75366 11.7014 5.6204 11.806 5.5158C11.9105 5.4112 12.0437 5.33995 12.1888 5.31107C12.3338 5.28219 12.4842 5.29698 12.6208 5.35355C12.7574 5.41013 12.8742 5.50596 12.9564 5.62892C13.0386 5.75188 13.0824 5.89645 13.0824 6.04434C13.0828 6.14254 13.0639 6.23987 13.0266 6.33072C12.9893 6.42158 12.9344 6.50418 12.8651 6.57379C12.7959 6.64339 12.7135 6.69864 12.6228 6.73635C12.5322 6.77406 12.4349 6.7935 12.3367 6.79355L12.3352 6.79199ZM15.875 0.631836H2.125C1.62772 0.631836 1.15081 0.82938 0.799175 1.18101C0.447544 1.53264 0.25 2.00955 0.25 2.50684L0.25 16.2568C0.25 16.7541 0.447544 17.231 0.799175 17.5827C1.15081 17.9343 1.62772 18.1318 2.125 18.1318H15.875C16.3723 18.1318 16.8492 17.9343 17.2008 17.5827C17.5525 17.231 17.75 16.7541 17.75 16.2568V2.50684C17.75 2.00955 17.5525 1.53264 17.2008 1.18101C16.8492 0.82938 16.3723 0.631836 15.875 0.631836ZM15.2063 11.96C15.1559 12.9611 14.9273 13.8482 14.1965 14.5771C13.4656 15.3061 12.5793 15.5393 11.5793 15.5869C10.5477 15.6451 7.45469 15.6451 6.42305 15.5869C5.42188 15.5365 4.53789 15.3076 3.80586 14.5771C3.07383 13.8467 2.84375 12.9592 2.79609 11.96C2.73789 10.9279 2.73789 7.83457 2.79609 6.80371C2.84648 5.80254 3.07227 4.91543 3.80586 4.18652C4.53945 3.45762 5.42578 3.22715 6.42305 3.17949C7.45469 3.12129 10.5477 3.12129 11.5793 3.17949C12.5805 3.22988 13.4672 3.45879 14.1965 4.18926C14.9258 4.91973 15.1586 5.80723 15.2063 6.8084C15.2645 7.83652 15.2645 10.9271 15.2063 11.96Z" fill="#73869F"/>
</svg>
