<svg width="18" height="19" viewBox="0 0 18 19" fill="none" xmlns="http://www.w3.org/2000/svg">
<path d="M16.5 0.631836H1.49609C0.808594 0.631836 0.25 1.19824 0.25 1.89355V16.8701C0.25 17.5654 0.808594 18.1318 1.49609 18.1318H16.5C17.1875 18.1318 17.75 17.5654 17.75 16.8701V1.89355C17.75 1.19824 17.1875 0.631836 16.5 0.631836ZM5.53906 15.6318H2.94531V7.28027H5.54297V15.6318H5.53906ZM4.24219 6.13965C3.41016 6.13965 2.73828 5.46387 2.73828 4.63574C2.73828 3.80762 3.41016 3.13184 4.24219 3.13184C5.07031 3.13184 5.74609 3.80762 5.74609 4.63574C5.74609 5.46777 5.07422 6.13965 4.24219 6.13965ZM15.2617 15.6318H12.668V11.5693C12.668 10.6006 12.6484 9.35449 11.3203 9.35449C9.96875 9.35449 9.76172 10.4092 9.76172 11.499V15.6318H7.16797V7.28027H9.65625V8.4209H9.69141C10.0391 7.76465 10.8867 7.07324 12.1484 7.07324C14.7734 7.07324 15.2617 8.80371 15.2617 11.0537V15.6318Z" fill="#73869F"/>
</svg>
