<svg width="185" height="33" viewBox="0 0 185 33" fill="none" xmlns="http://www.w3.org/2000/svg">
<path d="M17.05 24.0377L23.35 28.0377C24.1625 28.5502 25.1625 27.7877 24.925 26.8502L23.1 19.6752C23.0506 19.4763 23.0585 19.2676 23.1226 19.073C23.1868 18.8783 23.3046 18.7058 23.4625 18.5752L29.1125 13.8627C29.85 13.2502 29.475 12.0127 28.5125 11.9502L21.1375 11.4752C20.9363 11.4635 20.7428 11.3934 20.5808 11.2736C20.4187 11.1537 20.2951 10.9892 20.225 10.8002L17.475 3.87523C17.4022 3.6751 17.2696 3.50223 17.0952 3.38007C16.9207 3.25791 16.7129 3.19238 16.5 3.19238C16.287 3.19238 16.0793 3.25791 15.9048 3.38007C15.7304 3.50223 15.5978 3.6751 15.525 3.87523L12.775 10.8002C12.7049 10.9892 12.5813 11.1537 12.4192 11.2736C12.2572 11.3934 12.0637 11.4635 11.8625 11.4752L4.48749 11.9502C3.52499 12.0127 3.14999 13.2502 3.88749 13.8627L9.5375 18.5752C9.69541 18.7058 9.81323 18.8783 9.87736 19.073C9.9415 19.2676 9.94934 19.4763 9.89999 19.6752L8.21249 26.3252C7.92499 27.4502 9.12499 28.3627 10.0875 27.7502L15.95 24.0377C16.1144 23.9332 16.3052 23.8777 16.5 23.8777C16.6948 23.8777 16.8856 23.9332 17.05 24.0377Z" fill="#F59E0B"/>
<path d="M55.05 24.0377L61.35 28.0377C62.1625 28.5502 63.1625 27.7877 62.925 26.8502L61.1 19.6752C61.0506 19.4763 61.0585 19.2676 61.1226 19.073C61.1868 18.8783 61.3046 18.7058 61.4625 18.5752L67.1125 13.8627C67.85 13.2502 67.475 12.0127 66.5125 11.9502L59.1375 11.4752C58.9363 11.4635 58.7428 11.3934 58.5808 11.2736C58.4187 11.1537 58.2951 10.9892 58.225 10.8002L55.475 3.87523C55.4022 3.6751 55.2696 3.50223 55.0952 3.38007C54.9207 3.25791 54.7129 3.19238 54.5 3.19238C54.287 3.19238 54.0793 3.25791 53.9048 3.38007C53.7304 3.50223 53.5978 3.6751 53.525 3.87523L50.775 10.8002C50.7049 10.9892 50.5813 11.1537 50.4192 11.2736C50.2572 11.3934 50.0637 11.4635 49.8625 11.4752L42.4875 11.9502C41.525 12.0127 41.15 13.2502 41.8875 13.8627L47.5375 18.5752C47.6954 18.7058 47.8132 18.8783 47.8774 19.073C47.9415 19.2676 47.9493 19.4763 47.9 19.6752L46.2125 26.3252C45.925 27.4502 47.125 28.3627 48.0875 27.7502L53.95 24.0377C54.1144 23.9332 54.3052 23.8777 54.5 23.8777C54.6948 23.8777 54.8856 23.9332 55.05 24.0377Z" fill="#F59E0B"/>
<path d="M93.05 24.0377L99.35 28.0377C100.162 28.5502 101.162 27.7877 100.925 26.8502L99.1 19.6752C99.0506 19.4763 99.0585 19.2676 99.1226 19.073C99.1868 18.8783 99.3046 18.7058 99.4625 18.5752L105.112 13.8627C105.85 13.2502 105.475 12.0127 104.512 11.9502L97.1375 11.4752C96.9363 11.4635 96.7428 11.3934 96.5808 11.2736C96.4187 11.1537 96.2951 10.9892 96.225 10.8002L93.475 3.87523C93.4022 3.6751 93.2696 3.50223 93.0952 3.38007C92.9207 3.25791 92.7129 3.19238 92.5 3.19238C92.287 3.19238 92.0793 3.25791 91.9048 3.38007C91.7304 3.50223 91.5978 3.6751 91.525 3.87523L88.775 10.8002C88.7049 10.9892 88.5813 11.1537 88.4192 11.2736C88.2572 11.3934 88.0637 11.4635 87.8625 11.4752L80.4875 11.9502C79.525 12.0127 79.15 13.2502 79.8875 13.8627L85.5375 18.5752C85.6954 18.7058 85.8132 18.8783 85.8774 19.073C85.9415 19.2676 85.9493 19.4763 85.9 19.6752L84.2125 26.3252C83.925 27.4502 85.125 28.3627 86.0875 27.7502L91.95 24.0377C92.1144 23.9332 92.3052 23.8777 92.5 23.8777C92.6948 23.8777 92.8856 23.9332 93.05 24.0377Z" fill="#F59E0B"/>
<path d="M131.05 24.0377L137.35 28.0377C138.162 28.5502 139.162 27.7877 138.925 26.8502L137.1 19.6752C137.051 19.4763 137.058 19.2676 137.123 19.073C137.187 18.8783 137.305 18.7058 137.462 18.5752L143.112 13.8627C143.85 13.2502 143.475 12.0127 142.512 11.9502L135.137 11.4752C134.936 11.4635 134.743 11.3934 134.581 11.2736C134.419 11.1537 134.295 10.9892 134.225 10.8002L131.475 3.87523C131.402 3.6751 131.27 3.50223 131.095 3.38007C130.921 3.25791 130.713 3.19238 130.5 3.19238C130.287 3.19238 130.079 3.25791 129.905 3.38007C129.73 3.50223 129.598 3.6751 129.525 3.87523L126.775 10.8002C126.705 10.9892 126.581 11.1537 126.419 11.2736C126.257 11.3934 126.064 11.4635 125.862 11.4752L118.487 11.9502C117.525 12.0127 117.15 13.2502 117.887 13.8627L123.537 18.5752C123.695 18.7058 123.813 18.8783 123.877 19.073C123.941 19.2676 123.949 19.4763 123.9 19.6752L122.212 26.3252C121.925 27.4502 123.125 28.3627 124.087 27.7502L129.95 24.0377C130.114 23.9332 130.305 23.8777 130.5 23.8777C130.695 23.8777 130.886 23.9332 131.05 24.0377Z" fill="#F59E0B"/>
<path d="M169.05 24.0377L175.35 28.0377C176.162 28.5502 177.162 27.7877 176.925 26.8502L175.1 19.6752C175.051 19.4763 175.058 19.2676 175.123 19.073C175.187 18.8783 175.305 18.7058 175.462 18.5752L181.112 13.8627C181.85 13.2502 181.475 12.0127 180.512 11.9502L173.137 11.4752C172.936 11.4635 172.743 11.3934 172.581 11.2736C172.419 11.1537 172.295 10.9892 172.225 10.8002L169.475 3.87523C169.402 3.6751 169.27 3.50223 169.095 3.38007C168.921 3.25791 168.713 3.19238 168.5 3.19238C168.287 3.19238 168.079 3.25791 167.905 3.38007C167.73 3.50223 167.598 3.6751 167.525 3.87523L164.775 10.8002C164.705 10.9892 164.581 11.1537 164.419 11.2736C164.257 11.3934 164.064 11.4635 163.862 11.4752L156.487 11.9502C155.525 12.0127 155.15 13.2502 155.887 13.8627L161.537 18.5752C161.695 18.7058 161.813 18.8783 161.877 19.073C161.941 19.2676 161.949 19.4763 161.9 19.6752L160.212 26.3252C159.925 27.4502 161.125 28.3627 162.087 27.7502L167.95 24.0377C168.114 23.9332 168.305 23.8777 168.5 23.8777C168.695 23.8777 168.886 23.9332 169.05 24.0377Z" fill="#F59E0B"/>
</svg>
