<svg width="1920" height="2300" viewBox="0 0 1920 2300" fill="none" xmlns="http://www.w3.org/2000/svg">
<g opacity="0.2" filter="url(#filter0_f_2110_40444)">
<path d="M340.207 1558.57C406.985 1308.34 349.803 1051.06 212.489 983.914C75.1748 916.773 -90.2747 1065.2 -157.053 1315.43C-223.831 1565.66 -166.65 1822.94 -29.3352 1890.09C107.979 1957.23 273.429 1808.8 340.207 1558.57Z" fill="#EF4444"/>
<path opacity="0.8" d="M951.88 1187.91C1043.22 976.108 934.553 660.037 709.166 481.949C483.78 303.861 227.023 331.193 135.683 542.997C44.3439 754.8 153.011 1070.87 378.397 1248.96C603.784 1427.05 860.541 1399.72 951.88 1187.91Z" fill="#D946EF"/>
<path d="M1853.06 1607.36C1987.79 1294.95 1880.8 870.866 1614.1 660.136C1347.4 449.406 1021.99 531.831 887.266 844.236C752.542 1156.64 859.528 1580.73 1126.23 1791.46C1392.92 2002.19 1718.34 1919.76 1853.06 1607.36Z" fill="#6366F1"/>
<path d="M1418.22 1814.07C1435.23 1699.64 1259.97 1555.42 1026.78 1491.94C793.587 1428.45 590.765 1469.75 573.764 1584.18C556.762 1698.61 732.018 1842.84 965.21 1906.32C1198.4 1969.8 1401.22 1928.5 1418.22 1814.07Z" fill="#F59E0B"/>
</g>
<defs>
<filter id="filter0_f_2110_40444" x="-548.539" y="0.807312" width="2823.41" height="2298.89" filterUnits="userSpaceOnUse" color-interpolation-filters="sRGB">
<feFlood flood-opacity="0" result="BackgroundImageFix"/>
<feBlend mode="normal" in="SourceGraphic" in2="BackgroundImageFix" result="shape"/>
<feGaussianBlur stdDeviation="181.791" result="effect1_foregroundBlur_2110_40444"/>
</filter>
</defs>
</svg>
