<svg width="18" height="21" viewBox="0 0 18 21" fill="none" xmlns="http://www.w3.org/2000/svg">
<path d="M9.44247 0.398711C10.5331 0.381836 11.6175 0.391836 12.7006 0.381836C12.7662 1.65746 13.225 2.95684 14.1587 3.85871C15.0906 4.78309 16.4087 5.20621 17.6912 5.34934V8.70496C16.4893 8.66559 15.2818 8.41559 14.1912 7.89809C13.7162 7.68309 13.2737 7.40621 12.8406 7.12309C12.835 9.55809 12.8506 11.99 12.825 14.415C12.76 15.58 12.3756 16.7393 11.6981 17.6993C10.6081 19.2975 8.71622 20.3393 6.77309 20.3718C5.58122 20.44 4.39059 20.115 3.37497 19.5162C1.69184 18.5237 0.507467 16.7068 0.334967 14.7568C0.314967 14.34 0.308092 13.9237 0.324967 13.5168C0.474967 11.9312 1.25934 10.4143 2.47684 9.38246C3.85684 8.18059 5.78997 7.60809 7.59997 7.94684C7.61684 9.18121 7.56747 10.4143 7.56747 11.6487C6.74059 11.3812 5.77434 11.4562 5.05184 11.9581C4.52434 12.3 4.12372 12.8237 3.91497 13.4162C3.74247 13.8387 3.79184 14.3081 3.80184 14.7568C3.99997 16.1243 5.31497 17.2737 6.71872 17.1493C7.64934 17.1393 8.54122 16.5993 9.02622 15.8087C9.18309 15.5318 9.35872 15.2487 9.36809 14.9231C9.44997 13.4325 9.41747 11.9481 9.42747 10.4575C9.43434 7.09809 9.41747 3.74809 9.44309 0.399336L9.44247 0.398711Z" fill="#73869F"/>
</svg>
