<svg width="504" height="305" viewBox="0 0 504 305" fill="none" xmlns="http://www.w3.org/2000/svg">
<rect width="502.422" height="304.457" transform="translate(0.776611 0.0297852)" fill="#EBEBFD"/>
<g clip-path="url(#clip0_2110_40900)">
<path d="M7.60303 202.091C7.60303 190.027 17.3831 180.247 29.4475 180.247H230.143C242.208 180.247 251.988 190.027 251.988 202.091V275.816C251.988 287.88 242.208 297.66 230.143 297.66H29.4475C17.3831 297.66 7.60303 287.88 7.60303 275.816V202.091Z" fill="#34353C"/>
<path d="M52.9722 202.853L47.3035 225.954H39.4068L36.2284 211.798L32.9845 225.954H25.0877L19.4846 202.853H26.4312L29.118 218.647L32.7551 202.853H39.8L43.3388 218.516L46.0256 202.853H52.9722ZM62.3245 207.997V211.766H69.697V216.648H62.3245V220.809H70.68V225.954H55.9022V202.853H70.68V207.997H62.3245ZM80.4806 221.039H87.6565V225.954H74.0583V202.853H80.4806V221.039ZM89.572 214.354C89.572 212.082 90.0417 210.062 90.981 208.292C91.9422 206.501 93.2965 205.114 95.0441 204.131C96.7916 203.126 98.8013 202.624 101.073 202.624C103.957 202.624 106.381 203.399 108.347 204.95C110.313 206.479 111.58 208.565 112.148 211.209H105.235C104.819 210.335 104.241 209.669 103.498 209.21C102.777 208.751 101.936 208.522 100.975 208.522C99.4894 208.522 98.2989 209.057 97.4033 210.127C96.5295 211.176 96.0926 212.585 96.0926 214.354C96.0926 216.145 96.5295 217.576 97.4033 218.647C98.2989 219.695 99.4894 220.219 100.975 220.219C101.936 220.219 102.777 219.99 103.498 219.531C104.241 219.073 104.819 218.406 105.235 217.533H112.148C111.58 220.176 110.313 222.273 108.347 223.824C106.381 225.353 103.957 226.117 101.073 226.117C98.8013 226.117 96.7916 225.626 95.0441 224.643C93.2965 223.638 91.9422 222.251 90.981 220.482C90.0417 218.69 89.572 216.648 89.572 214.354ZM126.469 226.183C124.307 226.183 122.319 225.681 120.506 224.676C118.693 223.649 117.251 222.24 116.181 220.449C115.132 218.636 114.608 216.593 114.608 214.321C114.608 212.05 115.132 210.018 116.181 208.227C117.251 206.414 118.693 205.005 120.506 204C122.319 202.995 124.307 202.493 126.469 202.493C128.654 202.493 130.642 202.995 132.433 204C134.246 205.005 135.677 206.414 136.725 208.227C137.774 210.018 138.298 212.05 138.298 214.321C138.298 216.593 137.774 218.636 136.725 220.449C135.677 222.24 134.246 223.649 132.433 224.676C130.62 225.681 128.632 226.183 126.469 226.183ZM126.469 220.219C128.108 220.219 129.397 219.684 130.336 218.614C131.297 217.544 131.778 216.113 131.778 214.321C131.778 212.487 131.297 211.045 130.336 209.996C129.397 208.926 128.108 208.391 126.469 208.391C124.809 208.391 123.509 208.926 122.57 209.996C121.631 211.045 121.161 212.487 121.161 214.321C121.161 216.135 121.631 217.576 122.57 218.647C123.509 219.695 124.809 220.219 126.469 220.219ZM168.357 202.853V225.954H161.935V213.207L157.577 225.954H152.203L147.812 213.109V225.954H141.39V202.853H149.156L154.955 217.86L160.624 202.853H168.357ZM178.64 207.997V211.766H186.012V216.648H178.64V220.809H186.995V225.954H172.218V202.853H186.995V207.997H178.64ZM214.249 202.853V207.965H208.089V225.954H201.667V207.965H195.572V202.853H214.249ZM227.905 226.183C225.743 226.183 223.755 225.681 221.942 224.676C220.129 223.649 218.687 222.24 217.616 220.449C216.568 218.636 216.044 216.593 216.044 214.321C216.044 212.05 216.568 210.018 217.616 208.227C218.687 206.414 220.129 205.005 221.942 204C223.755 202.995 225.743 202.493 227.905 202.493C230.09 202.493 232.078 202.995 233.869 204C235.682 205.005 237.113 206.414 238.161 208.227C239.21 210.018 239.734 212.05 239.734 214.321C239.734 216.593 239.21 218.636 238.161 220.449C237.113 222.24 235.682 223.649 233.869 224.676C232.056 225.681 230.068 226.183 227.905 226.183ZM227.905 220.219C229.544 220.219 230.832 219.684 231.772 218.614C232.733 217.544 233.213 216.113 233.213 214.321C233.213 212.487 232.733 211.045 231.772 209.996C230.832 208.926 229.544 208.391 227.905 208.391C226.245 208.391 224.945 208.926 224.006 209.996C223.067 211.045 222.597 212.487 222.597 214.321C222.597 216.135 223.067 217.576 224.006 218.647C224.945 219.695 226.245 220.219 227.905 220.219ZM79.4905 251.853L71.5282 274.954H63.3038L55.3087 251.853H62.1897L67.4324 268.531L72.6423 251.853H79.4905ZM88.1187 251.853V274.954H81.6964V251.853H88.1187ZM101.123 251.853C103.547 251.853 105.666 252.345 107.479 253.328C109.314 254.289 110.723 255.643 111.706 257.391C112.689 259.138 113.181 261.137 113.181 263.387C113.181 265.615 112.678 267.603 111.674 269.351C110.691 271.098 109.282 272.474 107.447 273.479C105.634 274.462 103.526 274.954 101.123 274.954H91.9808V251.853H101.123ZM100.631 269.285C102.51 269.285 103.984 268.772 105.055 267.745C106.125 266.718 106.66 265.266 106.66 263.387C106.66 261.487 106.125 260.023 105.055 258.996C103.984 257.948 102.51 257.423 100.631 257.423H98.403V269.285H100.631ZM130.895 271.185H122.703L121.458 274.954H114.708L123.129 251.853H130.534L138.922 274.954H132.14L130.895 271.185ZM129.289 266.27L126.799 258.8L124.341 266.27H129.289ZM147.512 251.853V265.255C147.512 266.5 147.796 267.461 148.363 268.138C148.953 268.815 149.838 269.154 151.018 269.154C152.197 269.154 153.082 268.815 153.672 268.138C154.283 267.439 154.589 266.478 154.589 265.255V251.853H161.011V265.255C161.011 267.374 160.564 269.187 159.668 270.694C158.772 272.179 157.549 273.304 155.998 274.069C154.469 274.812 152.765 275.183 150.887 275.183C149.008 275.183 147.326 274.812 145.84 274.069C144.377 273.304 143.219 272.179 142.367 270.694C141.537 269.209 141.122 267.395 141.122 265.255V251.853H147.512ZM185.843 271.185H177.651L176.406 274.954H169.656L178.077 251.853H185.482L193.87 274.954H187.088L185.843 271.185ZM184.237 266.27L181.747 258.8L179.289 266.27H184.237ZM202.591 251.853V274.954H196.169V251.853H202.591Z" fill="#0D5AF8"/>
</g>
<g clip-path="url(#clip1_2110_40900)">
<path d="M288.85 210.282C288.85 198.218 298.631 188.438 310.695 188.438H510.025C522.09 188.438 531.87 198.218 531.87 210.282V267.624C531.87 279.688 522.09 289.469 510.025 289.469H310.695C298.631 289.469 288.85 279.688 288.85 267.624V210.282Z" fill="#6A3BFF"/>
<path d="M319.889 230.953L326.245 208.016H331.619L324.902 230.953H319.889ZM306.159 230.953L299.475 208.016H304.849L311.173 230.953H306.159ZM306.88 230.953L312.909 208.016H317.628L311.631 230.953H306.88ZM319.397 230.953L313.433 208.016H318.152L324.41 230.953H319.397ZM334.284 230.953V208.016H339.56V230.953H334.284ZM338.118 230.953V226.104H349.39V230.953H338.118ZM338.118 221.746V217.06H347.653V221.746H338.118ZM338.118 212.866V208.016H349.226V212.866H338.118ZM353.72 230.953V208.016H358.996V230.953H353.72ZM356.866 230.953V226.104H368.76V230.953H356.866ZM382.135 231.346C379.863 231.346 377.853 230.844 376.106 229.839C374.38 228.812 373.015 227.414 372.01 225.645C371.027 223.854 370.535 221.8 370.535 219.485C370.535 217.169 371.027 215.127 372.01 213.357C373.015 211.566 374.38 210.168 376.106 209.163C377.853 208.137 379.863 207.623 382.135 207.623C383.795 207.623 385.313 207.918 386.689 208.508C388.087 209.076 389.289 209.884 390.294 210.933C391.32 211.981 392.107 213.194 392.653 214.57L387.705 216.241C387.377 215.476 386.93 214.81 386.362 214.242C385.815 213.674 385.182 213.237 384.461 212.931C383.762 212.626 382.987 212.473 382.135 212.473C380.933 212.473 379.863 212.768 378.924 213.357C377.984 213.947 377.252 214.777 376.728 215.848C376.204 216.896 375.942 218.109 375.942 219.485C375.942 220.861 376.204 222.084 376.728 223.155C377.274 224.203 378.017 225.033 378.956 225.645C379.917 226.235 381.01 226.53 382.233 226.53C383.129 226.53 383.926 226.366 384.625 226.038C385.324 225.71 385.925 225.252 386.427 224.662C386.951 224.072 387.399 223.395 387.771 222.63L392.718 224.301C392.194 225.7 391.419 226.934 390.392 228.004C389.365 229.053 388.153 229.872 386.755 230.462C385.357 231.051 383.817 231.346 382.135 231.346ZM406.605 231.346C404.246 231.346 402.16 230.844 400.347 229.839C398.534 228.812 397.114 227.414 396.087 225.645C395.06 223.854 394.547 221.811 394.547 219.518C394.547 217.202 395.06 215.16 396.087 213.39C397.114 211.599 398.523 210.201 400.314 209.196C402.127 208.169 404.202 207.656 406.54 207.656C408.877 207.656 410.941 208.169 412.733 209.196C414.546 210.201 415.966 211.599 416.992 213.39C418.019 215.16 418.532 217.202 418.532 219.518C418.532 221.811 418.019 223.854 416.992 225.645C415.987 227.414 414.589 228.812 412.798 229.839C411.007 230.844 408.943 231.346 406.605 231.346ZM406.605 226.497C407.894 226.497 409.03 226.202 410.013 225.612C410.996 225.022 411.761 224.203 412.307 223.155C412.853 222.084 413.126 220.872 413.126 219.518C413.126 218.141 412.842 216.929 412.274 215.88C411.706 214.81 410.93 213.98 409.947 213.39C408.964 212.779 407.829 212.473 406.54 212.473C405.251 212.473 404.115 212.779 403.132 213.39C402.149 213.98 401.374 214.81 400.806 215.88C400.238 216.929 399.954 218.141 399.954 219.518C399.954 220.872 400.238 222.084 400.806 223.155C401.374 224.203 402.16 225.022 403.165 225.612C404.17 226.202 405.316 226.497 406.605 226.497ZM433.875 225.907L422.046 208.77L424.602 208.148L427.748 208.016L436.529 221.058L433.875 225.907ZM421.948 230.953V208.016H427.223V230.953H421.948ZM433.875 225.907L431.155 221.058L439.97 208.016L443.181 208.148L445.638 208.705L433.875 225.907ZM440.494 230.953V208.016H445.769V230.953H440.494ZM450.44 230.953V208.016H455.715V230.953H450.44ZM454.273 230.953V226.104H465.545V230.953H454.273ZM454.273 221.746V217.06H463.808V221.746H454.273ZM454.273 212.866V208.016H465.381V212.866H454.273ZM482.741 230.953V209.917H487.983V230.953H482.741ZM476.056 212.866V208.016H494.668V212.866H476.056ZM508.393 231.346C506.034 231.346 503.948 230.844 502.135 229.839C500.322 228.812 498.902 227.414 497.875 225.645C496.848 223.854 496.335 221.811 496.335 219.518C496.335 217.202 496.848 215.16 497.875 213.39C498.902 211.599 500.311 210.201 502.102 209.196C503.915 208.169 505.99 207.656 508.328 207.656C510.665 207.656 512.729 208.169 514.52 209.196C516.334 210.201 517.753 211.599 518.78 213.39C519.807 215.16 520.32 217.202 520.32 219.518C520.32 221.811 519.807 223.854 518.78 225.645C517.775 227.414 516.377 228.812 514.586 229.839C512.795 230.844 510.73 231.346 508.393 231.346ZM508.393 226.497C509.682 226.497 510.818 226.202 511.801 225.612C512.784 225.022 513.548 224.203 514.095 223.155C514.641 222.084 514.914 220.872 514.914 219.518C514.914 218.141 514.63 216.929 514.062 215.88C513.494 214.81 512.718 213.98 511.735 213.39C510.752 212.779 509.616 212.473 508.328 212.473C507.039 212.473 505.903 212.779 504.92 213.39C503.937 213.98 503.161 214.81 502.593 215.88C502.025 216.929 501.741 218.141 501.741 219.518C501.741 220.872 502.025 222.084 502.593 223.155C503.161 224.203 503.948 225.022 504.953 225.612C505.957 226.202 507.104 226.497 508.393 226.497ZM346.788 269.953L355.144 247.016H360.845L351.9 269.953H346.788ZM346.199 269.953L337.221 247.016H342.889L351.31 269.953H346.199ZM363.518 269.953V247.016H368.794V269.953H363.518ZM380.954 269.953V264.973C381.959 264.973 382.888 264.82 383.74 264.514C384.591 264.186 385.334 263.738 385.968 263.17C386.601 262.581 387.093 261.893 387.442 261.106C387.792 260.298 387.966 259.424 387.966 258.485C387.966 257.545 387.792 256.683 387.442 255.896C387.093 255.088 386.601 254.4 385.968 253.832C385.334 253.242 384.591 252.794 383.74 252.488C382.888 252.161 381.959 251.997 380.954 251.997V247.016C383.379 247.016 385.52 247.508 387.377 248.491C389.255 249.474 390.719 250.828 391.767 252.554C392.816 254.258 393.34 256.235 393.34 258.485C393.34 260.713 392.805 262.69 391.735 264.416C390.686 266.141 389.233 267.496 387.377 268.479C385.52 269.462 383.379 269.953 380.954 269.953ZM376.203 269.953V264.973H380.954V269.953H376.203ZM373.451 269.953V247.016H378.726V269.953H373.451ZM376.203 251.997V247.016H380.954V251.997H376.203ZM412.683 269.953L404.098 247.016H409.341L418.254 269.953H412.683ZM394.793 269.953L403.705 247.016H408.948L400.363 269.953H394.793ZM398.987 265.595V260.942H414.092V265.595H398.987ZM430.17 270.379C428.204 270.379 426.5 270.008 425.058 269.265C423.638 268.522 422.546 267.474 421.782 266.119C421.017 264.743 420.635 263.116 420.635 261.237H425.91C425.91 262.111 426.085 262.865 426.434 263.498C426.784 264.132 427.275 264.623 427.909 264.973C428.564 265.322 429.34 265.497 430.235 265.497C431.109 265.497 431.874 265.322 432.529 264.973C433.184 264.623 433.687 264.132 434.036 263.498C434.386 262.865 434.561 262.111 434.561 261.237H439.836C439.836 263.116 439.443 264.743 438.656 266.119C437.892 267.474 436.778 268.522 435.314 269.265C433.872 270.008 432.158 270.379 430.17 270.379ZM420.635 261.237V247.016H425.91V261.237H420.635ZM434.561 261.237V247.016H439.836V261.237H434.561ZM467.983 269.953L459.398 247.016H464.641L473.554 269.953H467.983ZM450.093 269.953L459.005 247.016H464.248L455.663 269.953H450.093ZM454.287 265.595V260.942H469.392V265.595H454.287ZM476.263 269.953V247.016H481.538V269.953H476.263Z" fill="white"/>
</g>
<g clip-path="url(#clip2_2110_40900)">
<path d="M19.208 39.6228C19.208 27.5584 28.9881 17.7783 41.0525 17.7783H239.018C251.082 17.7783 260.862 27.5584 260.862 39.6228V96.9644C260.862 109.029 251.082 118.809 239.018 118.809H41.0524C28.9881 118.809 19.208 109.029 19.208 96.9644V39.6228Z" fill="#0D5AF8"/>
<path d="M49.5633 60.2935L55.9201 37.3568H61.2938L54.5766 60.2935H49.5633ZM35.8341 60.2935L29.1497 37.3568H34.5234L40.8474 60.2935H35.8341ZM36.555 60.2935L42.584 37.3568H47.3024L41.3061 60.2935H36.555ZM49.0718 60.2935L43.1083 37.3568H47.8267L54.0851 60.2935H49.0718ZM63.9592 60.2935V37.3568H69.2346V60.2935H63.9592ZM67.7929 60.2935V55.444H79.0646V60.2935H67.7929ZM67.7929 51.086V46.4004H77.328V51.086H67.7929ZM67.7929 42.2063V37.3568H78.9008V42.2063H67.7929ZM83.3952 60.2935V37.3568H88.6706V60.2935H83.3952ZM86.5408 60.2935V55.444H98.4351V60.2935H86.5408ZM111.81 60.6867C109.538 60.6867 107.528 60.1842 105.78 59.1794C104.055 58.1527 102.689 56.7547 101.685 54.9853C100.702 53.194 100.21 51.1406 100.21 48.8251C100.21 46.5096 100.702 44.4672 101.685 42.6978C102.689 40.9065 104.055 39.5085 105.78 38.5036C107.528 37.4769 109.538 36.9636 111.81 36.9636C113.47 36.9636 114.988 37.2585 116.364 37.8483C117.762 38.4162 118.964 39.2245 119.968 40.273C120.995 41.3216 121.781 42.5339 122.328 43.9101L117.38 45.5812C117.052 44.8167 116.604 44.1504 116.036 43.5825C115.49 43.0145 114.857 42.5776 114.136 42.2718C113.437 41.966 112.661 41.8131 111.81 41.8131C110.608 41.8131 109.538 42.108 108.598 42.6978C107.659 43.2876 106.927 44.1176 106.403 45.188C105.879 46.2366 105.617 47.4489 105.617 48.8251C105.617 50.2013 105.879 51.4246 106.403 52.495C106.949 53.5435 107.692 54.3736 108.631 54.9853C109.592 55.5751 110.685 55.87 111.908 55.87C112.803 55.87 113.601 55.7061 114.3 55.3785C114.999 55.0508 115.6 54.5921 116.102 54.0023C116.626 53.4125 117.074 52.7353 117.445 51.9707L122.393 53.6418C121.869 55.0399 121.093 56.2741 120.067 57.3445C119.04 58.393 117.828 59.2122 116.43 59.802C115.032 60.3918 113.492 60.6867 111.81 60.6867ZM136.28 60.6867C133.921 60.6867 131.835 60.1842 130.022 59.1794C128.209 58.1527 126.789 56.7547 125.762 54.9853C124.735 53.194 124.222 51.1516 124.222 48.8579C124.222 46.5424 124.735 44.4999 125.762 42.7305C126.789 40.9393 128.198 39.5412 129.989 38.5364C131.802 37.5097 133.877 36.9964 136.215 36.9964C138.552 36.9964 140.616 37.5097 142.407 38.5364C144.221 39.5412 145.64 40.9393 146.667 42.7305C147.694 44.4999 148.207 46.5424 148.207 48.8579C148.207 51.1516 147.694 53.194 146.667 54.9853C145.662 56.7547 144.264 58.1527 142.473 59.1794C140.682 60.1842 138.617 60.6867 136.28 60.6867ZM136.28 55.8372C137.569 55.8372 138.705 55.5423 139.688 54.9525C140.671 54.3627 141.435 53.5435 141.981 52.495C142.528 51.4246 142.801 50.2122 142.801 48.8579C142.801 47.4817 142.517 46.2693 141.949 45.2208C141.381 44.1504 140.605 43.3203 139.622 42.7305C138.639 42.1189 137.503 41.8131 136.215 41.8131C134.926 41.8131 133.79 42.1189 132.807 42.7305C131.824 43.3203 131.048 44.1504 130.48 45.2208C129.912 46.2693 129.628 47.4817 129.628 48.8579C129.628 50.2122 129.912 51.4246 130.48 52.495C131.048 53.5435 131.835 54.3627 132.84 54.9525C133.844 55.5423 134.991 55.8372 136.28 55.8372ZM163.55 55.2474L151.721 38.1104L154.277 37.4879L157.422 37.3568L166.204 50.3979L163.55 55.2474ZM151.623 60.2935V37.3568H156.898V60.2935H151.623ZM163.55 55.2474L160.83 50.3979L169.644 37.3568L172.856 37.4879L175.313 38.0449L163.55 55.2474ZM170.169 60.2935V37.3568H175.444V60.2935H170.169ZM180.114 60.2935V37.3568H185.39V60.2935H180.114ZM183.948 60.2935V55.444H195.22V60.2935H183.948ZM183.948 51.086V46.4004H193.483V51.086H183.948ZM183.948 42.2063V37.3568H195.056V42.2063H183.948ZM212.415 60.2935V39.2573H217.658V60.2935H212.415ZM205.731 42.2063V37.3568H224.343V42.2063H205.731ZM238.068 60.6867C235.709 60.6867 233.623 60.1842 231.809 59.1794C229.996 58.1527 228.577 56.7547 227.55 54.9853C226.523 53.194 226.01 51.1516 226.01 48.8579C226.01 46.5424 226.523 44.4999 227.55 42.7305C228.577 40.9393 229.985 39.5412 231.777 38.5364C233.59 37.5097 235.665 36.9964 238.002 36.9964C240.34 36.9964 242.404 37.5097 244.195 38.5364C246.008 39.5412 247.428 40.9393 248.455 42.7305C249.482 44.4999 249.995 46.5424 249.995 48.8579C249.995 51.1516 249.482 53.194 248.455 54.9853C247.45 56.7547 246.052 58.1527 244.261 59.1794C242.47 60.1842 240.405 60.6867 238.068 60.6867ZM238.068 55.8372C239.357 55.8372 240.493 55.5423 241.476 54.9525C242.459 54.3627 243.223 53.5435 243.769 52.495C244.315 51.4246 244.588 50.2122 244.588 48.8579C244.588 47.4817 244.305 46.2693 243.737 45.2208C243.169 44.1504 242.393 43.3203 241.41 42.7305C240.427 42.1189 239.291 41.8131 238.002 41.8131C236.714 41.8131 235.578 42.1189 234.595 42.7305C233.612 43.3203 232.836 44.1504 232.268 45.2208C231.7 46.2693 231.416 47.4817 231.416 48.8579C231.416 50.2122 231.7 51.4246 232.268 52.495C232.836 53.5435 233.623 54.3627 234.627 54.9525C235.632 55.5423 236.779 55.8372 238.068 55.8372ZM76.4632 99.2935L84.8187 76.3568H90.5201L81.5748 99.2935H76.4632ZM75.8734 99.2935L66.8954 76.3568H72.564L80.985 99.2935H75.8734ZM93.1932 99.2935V76.3568H98.4686V99.2935H93.1932ZM110.629 99.2935V94.3129C111.634 94.3129 112.562 94.16 113.414 93.8542C114.266 93.5265 115.009 93.0787 115.642 92.5108C116.276 91.921 116.767 91.2329 117.117 90.4465C117.466 89.6382 117.641 88.7644 117.641 87.8251C117.641 86.8858 117.466 86.023 117.117 85.2366C116.767 84.4283 116.276 83.7402 115.642 83.1723C115.009 82.5825 114.266 82.1346 113.414 81.8288C112.562 81.5012 111.634 81.3373 110.629 81.3373V76.3568C113.054 76.3568 115.195 76.8483 117.051 77.8313C118.93 78.8143 120.394 80.1686 121.442 81.8944C122.491 83.5982 123.015 85.5751 123.015 87.8251C123.015 90.0533 122.48 92.0302 121.409 93.7559C120.361 95.4816 118.908 96.836 117.051 97.819C115.195 98.802 113.054 99.2935 110.629 99.2935ZM105.878 99.2935V94.3129H110.629V99.2935H105.878ZM103.126 99.2935V76.3568H108.401V99.2935H103.126ZM105.878 81.3373V76.3568H110.629V81.3373H105.878ZM142.358 99.2935L133.773 76.3568H139.016L147.928 99.2935H142.358ZM124.467 99.2935L133.38 76.3568H138.623L130.038 99.2935H124.467ZM128.662 94.9355V90.2826H143.767V94.9355H128.662ZM159.845 99.7194C157.879 99.7194 156.175 99.3481 154.733 98.6054C153.313 97.8626 152.221 96.8141 151.456 95.4598C150.692 94.0836 150.31 92.4561 150.31 90.5775H155.585C155.585 91.4513 155.76 92.2049 156.109 92.8384C156.459 93.4719 156.95 93.9634 157.584 94.3129C158.239 94.6624 159.015 94.8372 159.91 94.8372C160.784 94.8372 161.549 94.6624 162.204 94.3129C162.859 93.9634 163.362 93.4719 163.711 92.8384C164.061 92.2049 164.235 91.4513 164.235 90.5775H169.511C169.511 92.4561 169.118 94.0836 168.331 95.4598C167.567 96.8141 166.453 97.8626 164.989 98.6054C163.547 99.3481 161.833 99.7194 159.845 99.7194ZM150.31 90.5775V76.3568H155.585V90.5775H150.31ZM164.235 90.5775V76.3568H169.511V90.5775H164.235ZM197.658 99.2935L189.073 76.3568H194.316L203.228 99.2935H197.658ZM179.768 99.2935L188.68 76.3568H193.923L185.338 99.2935H179.768ZM183.962 94.9355V90.2826H199.067V94.9355H183.962ZM205.937 99.2935V76.3568H211.213V99.2935H205.937Z" fill="white"/>
</g>
<g clip-path="url(#clip3_2110_40900)">
<path d="M281.341 32.7966C281.341 20.7322 291.121 10.9521 303.186 10.9521H497.055C509.12 10.9521 518.9 20.7322 518.9 32.7966V103.791C518.9 115.855 509.12 125.635 497.055 125.635H303.186C291.121 125.635 281.341 115.855 281.341 103.791V32.7966Z" fill="#34353C"/>
<path d="M323.297 32.1934L317.629 55.2939H309.732L306.553 41.1387L303.31 55.2939H295.413L289.81 32.1934H296.756L299.443 47.987L303.08 32.1934H310.125L313.664 47.8559L316.351 32.1934H323.297ZM332.65 37.3378V41.106H340.022V45.9882H332.65V50.1496H341.005V55.2939H326.227V32.1934H341.005V37.3378H332.65ZM350.806 50.3789H357.982V55.2939H344.383V32.1934H350.806V50.3789ZM359.897 43.6945C359.897 41.4227 360.367 39.4021 361.306 37.6327C362.267 35.8415 363.622 34.4543 365.369 33.4713C367.117 32.4665 369.126 31.9641 371.398 31.9641C374.282 31.9641 376.706 32.7396 378.672 34.2905C380.638 35.8196 381.905 37.9058 382.473 40.5489H375.56C375.145 39.6752 374.566 39.0089 373.823 38.5502C373.102 38.0914 372.261 37.8621 371.3 37.8621C369.814 37.8621 368.624 38.3973 367.728 39.4676C366.855 40.5162 366.418 41.9251 366.418 43.6945C366.418 45.4858 366.855 46.9166 367.728 47.987C368.624 49.0355 369.814 49.5598 371.3 49.5598C372.261 49.5598 373.102 49.3304 373.823 48.8717C374.566 48.4129 375.145 47.7467 375.56 46.8729H382.473C381.905 49.5161 380.638 51.6132 378.672 53.1641C376.706 54.6932 374.282 55.4578 371.398 55.4578C369.126 55.4578 367.117 54.9663 365.369 53.9833C363.622 52.9784 362.267 51.5913 361.306 49.8219C360.367 48.0307 359.897 45.9882 359.897 43.6945ZM396.794 55.5233C394.632 55.5233 392.644 55.0209 390.831 54.016C389.018 52.9894 387.576 51.5804 386.506 49.7891C385.457 47.9761 384.933 45.9336 384.933 43.6618C384.933 41.39 385.457 39.3584 386.506 37.5672C387.576 35.7541 389.018 34.3451 390.831 33.3403C392.644 32.3354 394.632 31.833 396.794 31.833C398.979 31.833 400.967 32.3354 402.758 33.3403C404.571 34.3451 406.002 35.7541 407.05 37.5672C408.099 39.3584 408.623 41.39 408.623 43.6618C408.623 45.9336 408.099 47.9761 407.05 49.7891C406.002 51.5804 404.571 52.9894 402.758 54.016C400.945 55.0209 398.957 55.5233 396.794 55.5233ZM396.794 49.5598C398.433 49.5598 399.722 49.0246 400.661 47.9542C401.622 46.8838 402.103 45.453 402.103 43.6618C402.103 41.8268 401.622 40.3851 400.661 39.3366C399.722 38.2662 398.433 37.731 396.794 37.731C395.134 37.731 393.834 38.2662 392.895 39.3366C391.956 40.3851 391.486 41.8268 391.486 43.6618C391.486 45.4749 391.956 46.9166 392.895 47.987C393.834 49.0355 395.134 49.5598 396.794 49.5598ZM438.682 32.1934V55.2939H432.26V42.5477L427.902 55.2939H422.528L418.137 42.4494V55.2939H411.715V32.1934H419.481L425.28 47.2006L430.949 32.1934H438.682ZM448.965 37.3378V41.106H456.337V45.9882H448.965V50.1496H457.32V55.2939H442.543V32.1934H457.32V37.3378H448.965ZM484.574 32.1934V37.305H478.414V55.2939H471.992V37.305H465.897V32.1934H484.574ZM498.23 55.5233C496.068 55.5233 494.08 55.0209 492.267 54.016C490.454 52.9894 489.012 51.5804 487.942 49.7891C486.893 47.9761 486.369 45.9336 486.369 43.6618C486.369 41.39 486.893 39.3584 487.942 37.5672C489.012 35.7541 490.454 34.3451 492.267 33.3403C494.08 32.3354 496.068 31.833 498.23 31.833C500.415 31.833 502.403 32.3354 504.194 33.3403C506.007 34.3451 507.438 35.7541 508.486 37.5672C509.535 39.3584 510.059 41.39 510.059 43.6618C510.059 45.9336 509.535 47.9761 508.486 49.7891C507.438 51.5804 506.007 52.9894 504.194 54.016C502.381 55.0209 500.393 55.5233 498.23 55.5233ZM498.23 49.5598C499.869 49.5598 501.157 49.0246 502.097 47.9542C503.058 46.8838 503.538 45.453 503.538 43.6618C503.538 41.8268 503.058 40.3851 502.097 39.3366C501.157 38.2662 499.869 37.731 498.23 37.731C496.57 37.731 495.27 38.2662 494.331 39.3366C493.392 40.3851 492.922 41.8268 492.922 43.6618C492.922 45.4749 493.392 46.9166 494.331 47.987C495.27 49.0355 496.57 49.5598 498.23 49.5598ZM349.816 81.1934L341.853 104.294H333.629L325.634 81.1934H332.515L337.757 97.8717L342.967 81.1934H349.816ZM358.444 81.1934V104.294H352.021V81.1934H358.444ZM371.448 81.1934C373.872 81.1934 375.991 81.6849 377.804 82.6679C379.639 83.6291 381.048 84.9835 382.031 86.731C383.014 88.4786 383.506 90.4773 383.506 92.7273C383.506 94.9554 383.003 96.9433 381.999 98.6908C381.016 100.438 379.607 101.815 377.772 102.819C375.959 103.802 373.851 104.294 371.448 104.294H362.306V81.1934H371.448ZM370.956 98.6253C372.835 98.6253 374.309 98.112 375.38 97.0853C376.45 96.0586 376.985 94.6059 376.985 92.7273C376.985 90.8268 376.45 89.3633 375.38 88.3366C374.309 87.288 372.835 86.7638 370.956 86.7638H368.728V98.6253H370.956ZM401.22 100.526H393.028L391.783 104.294H385.033L393.454 81.1934H400.859L409.247 104.294H402.465L401.22 100.526ZM399.614 95.6108L397.124 88.14L394.666 95.6108H399.614ZM417.837 81.1934V94.595C417.837 95.8401 418.121 96.8013 418.689 97.4785C419.278 98.1557 420.163 98.4942 421.343 98.4942C422.522 98.4942 423.407 98.1557 423.997 97.4785C424.608 96.7795 424.914 95.8183 424.914 94.595V81.1934H431.336V94.595C431.336 96.7139 430.889 98.527 429.993 100.034C429.097 101.52 427.874 102.645 426.323 103.409C424.794 104.152 423.09 104.523 421.212 104.523C419.333 104.523 417.651 104.152 416.166 103.409C414.702 102.645 413.544 101.52 412.692 100.034C411.862 98.5489 411.447 96.7358 411.447 94.595V81.1934H417.837ZM456.168 100.526H447.976L446.731 104.294H439.981L448.402 81.1934H455.807L464.196 104.294H457.413L456.168 100.526ZM454.562 95.6108L452.072 88.14L449.614 95.6108H454.562ZM472.916 81.1934V104.294H466.494V81.1934H472.916Z" fill="#71FFDE"/>
</g>
<defs>
<clipPath id="clip0_2110_40900">
<path d="M7.60303 202.091C7.60303 190.027 17.3831 180.247 29.4475 180.247H230.143C242.208 180.247 251.988 190.027 251.988 202.091V275.816C251.988 287.88 242.208 297.66 230.143 297.66H29.4475C17.3831 297.66 7.60303 287.88 7.60303 275.816V202.091Z" fill="white"/>
</clipPath>
<clipPath id="clip1_2110_40900">
<path d="M288.85 210.282C288.85 198.218 298.631 188.438 310.695 188.438H510.025C522.09 188.438 531.87 198.218 531.87 210.282V267.624C531.87 279.688 522.09 289.469 510.025 289.469H310.695C298.631 289.469 288.85 279.688 288.85 267.624V210.282Z" fill="white"/>
</clipPath>
<clipPath id="clip2_2110_40900">
<path d="M19.208 39.6228C19.208 27.5584 28.9881 17.7783 41.0525 17.7783H239.018C251.082 17.7783 260.862 27.5584 260.862 39.6228V96.9644C260.862 109.029 251.082 118.809 239.018 118.809H41.0524C28.9881 118.809 19.208 109.029 19.208 96.9644V39.6228Z" fill="white"/>
</clipPath>
<clipPath id="clip3_2110_40900">
<path d="M281.341 32.7966C281.341 20.7322 291.121 10.9521 303.186 10.9521H497.055C509.12 10.9521 518.9 20.7322 518.9 32.7966V103.791C518.9 115.855 509.12 125.635 497.055 125.635H303.186C291.121 125.635 281.341 115.855 281.341 103.791V32.7966Z" fill="white"/>
</clipPath>
</defs>
</svg>
