<svg width="17" height="16" viewBox="0 0 17 16" fill="none" xmlns="http://www.w3.org/2000/svg">
<path d="M10.731 5.33332C11.1449 5.64381 11.481 6.04643 11.7124 6.50928C11.9438 6.97213 12.0643 7.48251 12.0643 7.99999C12.0643 8.51747 11.9438 9.02785 11.7124 9.4907C11.481 9.95355 11.1449 10.3562 10.731 10.6667M12.531 3.33332C13.2269 3.89576 13.7883 4.60674 14.1739 5.4142C14.5596 6.22167 14.7597 7.10516 14.7597 7.99999C14.7597 8.89482 14.5596 9.77831 14.1739 10.5858C13.7883 11.3932 13.2269 12.1042 12.531 12.6667M4.73096 9.99999H3.39762C3.22081 9.99999 3.05124 9.92975 2.92622 9.80473C2.80119 9.67971 2.73096 9.51014 2.73096 9.33333V6.66666C2.73096 6.48985 2.80119 6.32028 2.92622 6.19525C3.05124 6.07023 3.22081 5.99999 3.39762 5.99999H4.73096L7.06429 2.99999C7.12256 2.88681 7.21939 2.79821 7.33728 2.75019C7.45518 2.70217 7.58636 2.6979 7.70713 2.73815C7.82789 2.77841 7.93028 2.86053 7.99578 2.96969C8.06128 3.07884 8.08558 3.20782 8.06429 3.33333V12.6667C8.08558 12.7922 8.06128 12.9211 7.99578 13.0303C7.93028 13.1395 7.82789 13.2216 7.70713 13.2618C7.58636 13.3021 7.45518 13.2978 7.33728 13.2498C7.21939 13.2018 7.12256 13.1132 7.06429 13L4.73096 9.99999Z" stroke="#274FF5" stroke-width="1.33333" stroke-linecap="round" stroke-linejoin="round"/>
</svg>
