<svg width="100" height="34" viewBox="0 0 100 34" fill="none" xmlns="http://www.w3.org/2000/svg">
<path fill-rule="evenodd" clip-rule="evenodd" d="M28.0673 8.38058C30.2651 8.38058 32.2971 6.61644 32.606 4.44026C32.9149 2.26409 31.3836 0.49995 29.1858 0.49995C26.9881 0.49995 24.956 2.26409 24.6471 4.44026C24.3382 6.61644 25.8695 8.38058 28.0673 8.38058ZM85.4373 33.5001C80.4918 33.5001 77.0468 29.5307 77.7418 24.6343L80.9576 1.9775C80.9962 1.70549 81.2502 1.48497 81.5249 1.48497H87.4942C87.7689 1.48497 87.9604 1.70549 87.9218 1.9775L84.7584 24.2649C84.6039 25.353 85.3697 26.235 86.4685 26.235C87.5673 26.235 88.5835 25.353 88.7379 24.2649L91.9013 1.9775C91.9399 1.70549 92.194 1.48497 92.4687 1.48497H98.6863C98.961 1.48497 99.1524 1.70549 99.1138 1.9775L95.898 24.6343C95.203 29.5307 90.6312 33.5001 85.6857 33.5001H85.4373ZM43.9716 33.0075C43.6969 33.0075 43.5054 32.7871 43.5441 32.515L43.698 31.4304C42.2003 32.7542 40.3016 33.5001 38.43 33.5001H37.4351C33.589 33.5001 30.9093 30.4128 31.4498 26.6046L32.9179 16.2612C33.4584 12.4529 37.0146 9.36564 40.8606 9.36564H41.8555C43.7272 9.36564 45.4141 10.1116 46.536 11.4353L47.8784 1.97757C47.917 1.70554 48.1711 1.48503 48.4458 1.48503H54.415C54.6897 1.48503 54.8811 1.70554 54.8425 1.97757L50.5081 32.515C50.4695 32.7871 50.2155 33.0075 49.9408 33.0075H43.9716ZM7.77432 1.48509H1.04159C0.730638 1.48509 0.456268 1.76442 0.469829 2.06718L1.83769 32.6046C1.84816 32.8381 2.02978 33.0076 2.26963 33.0076H11.8052C12.045 33.0076 12.2747 32.8381 12.3515 32.6046L22.3881 2.06718C22.4876 1.76442 22.2925 1.48509 21.9816 1.48509H15.2488C15.0024 1.48509 14.7678 1.66375 14.6972 1.9051L8.24858 24.4744L8.20671 1.9051C8.20468 1.66375 8.02075 1.48509 7.77432 1.48509ZM73.9657 33.0076L67.233 33.0077C66.9866 33.0077 66.8027 32.829 66.8006 32.5877L66.7626 28.0822H61.627L60.3101 32.5878C60.2395 32.8291 60.0049 33.0078 59.7585 33.0078L53.0258 33.0077C52.7148 33.0077 52.5197 32.7283 52.6192 32.4256L62.6559 1.88811C62.7326 1.65458 62.9624 1.48512 63.2022 1.48512H72.7376C72.9775 1.48512 73.1591 1.65458 73.1695 1.88811L74.5375 32.4256C74.5511 32.7283 74.2767 33.0076 73.9657 33.0076ZM21.5872 33.0075C21.3125 33.0075 21.1211 32.7871 21.1597 32.515L24.3056 10.3508C24.3442 10.0787 24.5983 9.85817 24.873 9.85817H30.8421C31.1168 9.85817 31.3083 10.0787 31.2697 10.3508L28.1237 32.515C28.0851 32.7871 27.8311 33.0075 27.5564 33.0075H21.5872ZM66.7583 10.0186L66.7044 21.1867H63.6423L66.7583 10.0186ZM45.8752 21.8505L38.7793 25.8873C38.4189 26.0923 38.0226 25.8564 38.0775 25.4695L39.2234 17.3961C39.2783 17.0092 39.7416 16.7733 40.0438 16.9784L45.9937 21.0151C46.278 21.2081 46.2142 21.6575 45.8752 21.8505Z" fill="white"/>
</svg>
