<svg width="20" height="15" viewBox="0 0 20 15" fill="none" xmlns="http://www.w3.org/2000/svg">
<path d="M19.0853 2.80008C18.8672 1.9789 18.2246 1.33217 17.4088 1.11269C15.9299 0.713867 10 0.713867 10 0.713867C10 0.713867 4.07019 0.713867 2.59133 1.11269C1.77546 1.3322 1.13289 1.9789 0.914805 2.80008C0.518555 4.28852 0.518555 7.39401 0.518555 7.39401C0.518555 7.39401 0.518555 10.4995 0.914805 11.9879C1.13289 12.8091 1.77546 13.4289 2.59133 13.6484C4.07019 14.0472 10 14.0472 10 14.0472C10 14.0472 15.9299 14.0472 17.4088 13.6484C18.2246 13.4289 18.8672 12.8091 19.0853 11.9879C19.4815 10.4995 19.4815 7.39401 19.4815 7.39401C19.4815 7.39401 19.4815 4.28852 19.0853 2.80008ZM8.06064 10.2136V4.57446L13.0169 7.39408L8.06064 10.2136Z" fill="#73869F"/>
</svg>
